<svg width="64" height="63" viewBox="0 0 64 63" fill="none" xmlns="http://www.w3.org/2000/svg">
<path fill-rule="evenodd" clip-rule="evenodd" d="M30.9447 62.1137C32.4523 62.1137 33.6584 60.9076 33.6584 59.4C33.6584 57.8924 32.4523 56.6863 30.9447 56.6863C29.437 56.6863 28.231 57.8924 28.231 59.4C28.231 60.9076 29.437 62.1137 30.9447 62.1137Z" fill="white"/>
<path fill-rule="evenodd" clip-rule="evenodd" d="M15.8689 57.8923C17.075 58.4954 18.5826 58.1939 19.1857 56.9878C20.0902 55.7817 19.4872 54.2741 18.2811 53.3695C17.075 52.7665 15.5674 53.068 14.9643 54.5756C14.0598 55.7817 14.6628 57.2893 15.8689 57.8923Z" fill="white"/>
<path fill-rule="evenodd" clip-rule="evenodd" d="M4.10907 47.0375C5.01363 48.5451 6.82277 49.1481 8.33039 48.2436C9.838 47.339 10.441 45.5299 9.53648 44.0222C8.63191 42.5146 6.82277 42.2131 5.31516 42.8162C3.80754 43.7207 3.50602 45.5299 4.10907 47.0375Z" fill="white"/>
<path fill-rule="evenodd" clip-rule="evenodd" d="M0.189453 31.6599C0.189453 33.469 1.39554 34.6751 3.20468 34.6751C4.7123 34.6751 6.21991 33.469 6.21991 31.6599C6.21991 30.1523 4.7123 28.6447 3.20468 28.6447C1.39554 28.6447 0.189453 30.1523 0.189453 31.6599Z" fill="white"/>
<path fill-rule="evenodd" clip-rule="evenodd" d="M4.10909 16.2821C3.20452 17.7897 3.80757 19.9004 5.31518 20.805C6.8228 21.7095 8.93346 21.1065 9.83803 19.5989C10.7426 17.7897 10.1395 15.9806 8.63193 15.076C6.8228 14.1715 5.01366 14.473 4.10909 16.2821Z" fill="white"/>
<path fill-rule="evenodd" clip-rule="evenodd" d="M15.265 4.52279C13.4559 5.42736 12.8528 7.83954 13.7574 9.64868C14.9635 11.1563 17.0741 11.7593 18.8833 10.8548C20.6924 9.9502 21.2955 7.53802 20.0894 5.72888C19.1848 4.22126 17.0741 3.61822 15.265 4.52279Z" fill="white"/>
<path fill-rule="evenodd" clip-rule="evenodd" d="M30.9452 0C28.8345 0 27.0254 1.80914 27.0254 3.9198C27.0254 6.03046 28.8345 7.8396 30.9452 7.8396C33.0558 7.8396 34.865 6.03046 34.865 3.9198C34.865 1.80914 33.0558 0 30.9452 0Z" fill="white"/>
<path fill-rule="evenodd" clip-rule="evenodd" d="M46.9249 3.91972C44.8143 2.41211 42.1006 3.31668 40.8945 5.42734C39.6884 7.538 40.2914 10.2517 42.4021 11.4578C44.8143 12.6639 47.528 12.0608 48.7341 9.95018C49.9402 7.83952 49.0356 5.12582 46.9249 3.91972Z" fill="white"/>
<path fill-rule="evenodd" clip-rule="evenodd" d="M59.2883 15.3776C57.7807 12.9654 54.7655 12.0609 52.3533 13.5685C49.9411 14.7746 49.0366 17.7898 50.5442 20.202C52.0518 22.6142 55.067 23.5187 57.4792 22.3126C59.8914 20.805 60.796 17.7898 59.2883 15.3776Z" fill="white"/>
<path fill-rule="evenodd" clip-rule="evenodd" d="M63.8109 31.6598C63.8109 28.9461 61.3987 26.5339 58.685 26.5339C55.6697 26.5339 53.5591 28.9461 53.5591 31.6598C53.5591 34.3735 55.6697 36.7857 58.685 36.7857C61.3987 36.7857 63.8109 34.3735 63.8109 31.6598Z" fill="white"/>
<path fill-rule="evenodd" clip-rule="evenodd" d="M59.8907 48.2436C61.3983 45.8314 60.4938 42.2131 57.7801 40.7055C55.0664 39.1979 51.7496 40.1025 50.242 42.8162C48.4329 45.5299 49.3374 48.8466 52.0511 50.3543C54.7648 51.8619 58.3831 50.9573 59.8907 48.2436Z" fill="white"/>
<path d="M16.8509 37.4265V28.7145C16.8509 28.5105 16.8509 28.2945 16.8509 28.0665C16.8629 27.8265 16.8749 27.5805 16.8869 27.3285C16.4789 27.7245 16.0049 28.0725 15.4649 28.3725C14.9249 28.6605 14.3729 28.8705 13.8089 29.0025L13.4309 27.6885C13.6469 27.6645 13.9169 27.5865 14.2409 27.4545C14.5769 27.3105 14.9249 27.1365 15.2849 26.9325C15.6569 26.7165 15.9989 26.4885 16.3109 26.2485C16.6229 26.0085 16.8629 25.7745 17.0309 25.5465H18.2909V37.4265H16.8509ZM25.7186 37.6065C24.3746 37.6065 23.3006 37.0845 22.4966 36.0405C21.6926 34.9965 21.2906 33.4785 21.2906 31.4865C21.2906 29.4945 21.6926 27.9765 22.4966 26.9325C23.3006 25.8885 24.3746 25.3665 25.7186 25.3665C27.0746 25.3665 28.1486 25.8885 28.9406 26.9325C29.7446 27.9765 30.1466 29.4945 30.1466 31.4865C30.1466 33.4785 29.7446 34.9965 28.9406 36.0405C28.1486 37.0845 27.0746 37.6065 25.7186 37.6065ZM25.7186 36.3105C26.3546 36.3105 26.8886 36.1305 27.3206 35.7705C27.7646 35.3985 28.0946 34.8525 28.3106 34.1325C28.5386 33.4125 28.6526 32.5305 28.6526 31.4865C28.6526 30.4425 28.5386 29.5605 28.3106 28.8405C28.0946 28.1205 27.7646 27.5805 27.3206 27.2205C26.8886 26.8485 26.3546 26.6625 25.7186 26.6625C25.0826 26.6625 24.5426 26.8485 24.0986 27.2205C23.6666 27.5805 23.3366 28.1205 23.1086 28.8405C22.8926 29.5605 22.7846 30.4425 22.7846 31.4865C22.7846 32.5305 22.8926 33.4125 23.1086 34.1325C23.3366 34.8525 23.6666 35.3985 24.0986 35.7705C24.5426 36.1305 25.0826 36.3105 25.7186 36.3105ZM34.5579 37.4265L42.1179 25.5465H43.4859L35.9259 37.4265H34.5579ZM34.8999 25.3665C35.4879 25.3665 35.9919 25.5045 36.4119 25.7805C36.8439 26.0445 37.1739 26.4225 37.4019 26.9145C37.6419 27.4065 37.7619 27.9825 37.7619 28.6425C37.7619 29.3025 37.6419 29.8785 37.4019 30.3705C37.1739 30.8625 36.8439 31.2465 36.4119 31.5225C35.9919 31.7865 35.4879 31.9185 34.8999 31.9185C34.3239 31.9185 33.8199 31.7865 33.3879 31.5225C32.9559 31.2465 32.6199 30.8625 32.3799 30.3705C32.1519 29.8785 32.0379 29.3025 32.0379 28.6425C32.0379 27.9825 32.1519 27.4065 32.3799 26.9145C32.6199 26.4225 32.9559 26.0445 33.3879 25.7805C33.8199 25.5045 34.3239 25.3665 34.8999 25.3665ZM34.8999 26.5005C34.5639 26.5005 34.2759 26.5845 34.0359 26.7525C33.7959 26.9205 33.6159 27.1665 33.4959 27.4905C33.3759 27.8025 33.3159 28.1865 33.3159 28.6425C33.3159 29.0865 33.3759 29.4705 33.4959 29.7945C33.6159 30.1185 33.7959 30.3645 34.0359 30.5325C34.2759 30.7005 34.5639 30.7845 34.8999 30.7845C35.2479 30.7845 35.5359 30.7005 35.7639 30.5325C36.0039 30.3645 36.1839 30.1185 36.3039 29.7945C36.4239 29.4705 36.4839 29.0865 36.4839 28.6425C36.4839 28.1865 36.4239 27.8025 36.3039 27.4905C36.1839 27.1665 36.0039 26.9205 35.7639 26.7525C35.5359 26.5845 35.2479 26.5005 34.8999 26.5005ZM43.1439 31.0545C43.7319 31.0545 44.2359 31.1925 44.6559 31.4685C45.0879 31.7325 45.4179 32.1105 45.6459 32.6025C45.8859 33.0945 46.0059 33.6705 46.0059 34.3305C46.0059 34.9905 45.8859 35.5665 45.6459 36.0585C45.4179 36.5505 45.0879 36.9345 44.6559 37.2105C44.2359 37.4745 43.7319 37.6065 43.1439 37.6065C42.5679 37.6065 42.0639 37.4745 41.6319 37.2105C41.1999 36.9345 40.8639 36.5505 40.6239 36.0585C40.3959 35.5665 40.2819 34.9905 40.2819 34.3305C40.2819 33.6705 40.3959 33.0945 40.6239 32.6025C40.8639 32.1105 41.1999 31.7325 41.6319 31.4685C42.0639 31.1925 42.5679 31.0545 43.1439 31.0545ZM43.1439 32.1885C42.8079 32.1885 42.5199 32.2725 42.2799 32.4405C42.0399 32.6085 41.8599 32.8545 41.7399 33.1785C41.6199 33.4905 41.5599 33.8745 41.5599 34.3305C41.5599 34.7745 41.6199 35.1585 41.7399 35.4825C41.8599 35.8065 42.0399 36.0525 42.2799 36.2205C42.5199 36.3885 42.8079 36.4725 43.1439 36.4725C43.4919 36.4725 43.7799 36.3885 44.0079 36.2205C44.2479 36.0525 44.4279 35.8065 44.5479 35.4825C44.6679 35.1585 44.7279 34.7745 44.7279 34.3305C44.7279 33.8745 44.6679 33.4905 44.5479 33.1785C44.4279 32.8545 44.2479 32.6085 44.0079 32.4405C43.7799 32.2725 43.4919 32.1885 43.1439 32.1885Z" fill="white"/>
</svg>
